<mxfile host="app.diagrams.net" modified="2023-10-25T02:49:27.899Z" agent="Mozilla/5.0 (Windows NT 10.0; Win64; x64) AppleWebKit/537.36 (KHTML, like Gecko) Chrome/118.0.0.0 Safari/537.36" version="22.0.7" etag="B8pcv5W-ck6Ofcuke8yH" type="github">
  <diagram name="Page-1" id="HC84fRIo5L5SZe-6cnd3">
    <mxGraphModel>
      <root>
        <mxCell id="0" />
        <mxCell id="1" parent="0" />
      </root>
    </mxGraphModel>
  </diagram>
</mxfile>
